# xmcd
#
# Track frame offsets:
# 150
# 29117
# 47142
# 64432
# 92110
# 112925
# 140135
# 168512
# 188745
# 213867
# 229817
#
# Disc length: 3344 seconds
#
# Revision: 1
# Processed by: cddbd v1.4PL0 Copyright (c) Steve Scherf et al.
# Submitted via: CedeCatalogueitor 2.5 http://usuarios.lycos.es/kakasboy
#
DISCID=a30d0e0b
DTITLE=Juan Pardo - Pasion Por La Vida
DYEAR=1999
DGENRE=
TTITLE0=Angel
TTITLE1=Para Empezar A Vivir
TTITLE2=Canto Para Ti
TTITLE3=¡Santiago.....Si!
TTITLE4=Bajo El Puente
TTITLE5=Pasion Por La Vida
TTITLE6=Sevilla En Procesion
TTITLE7=Mas Que Amor
TTITLE8=Hablame Despacio
TTITLE9=Vive Sin Miedo
TTITLE10=Para Empezar A Vivir (version Piano)
EXTD=
EXTT0=
EXTT1=
EXTT2=
EXTT3=
EXTT4=
EXTT5=
EXTT6=
EXTT7=
EXTT8=
EXTT9=
EXTT10=
PLAYORDER=
